<?xml version="1.0" encoding="utf-8"?>
<!-- Generator: Adobe Illustrator 22.0.1, SVG Export Plug-In . SVG Version: 6.00 Build 0)  -->
<svg version="1.1" id="Layer_1" xmlns="http://www.w3.org/2000/svg" xmlns:xlink="http://www.w3.org/1999/xlink" x="0px" y="0px"
	 viewBox="0 0 144.3 107.1" style="enable-background:new 0 0 144.3 107.1;" xml:space="preserve">
<g>
	<path d="M70.9,106.9c-19.8,0-39.6,0-59.4,0C1.4,106.8,0,105.4,0,95.6c0-28.1,0-56.2,0-84.2C0,2.3,2.1,0.2,11.3,0.2
		c40.4,0,80.8,0,121.3,0c9.7,0,11.4,1.8,11.4,11.7c0,27.4,0,54.9,0,82.3c0,9.7-2.9,12.7-12.4,12.7
		C111.3,106.9,91.1,106.9,70.9,106.9z M131.8,25.6c-2.6,1.8-4.4,2.9-6.2,4.3C110,41.7,94.3,53.4,79,65.5c-5.2,4.2-8.9,3.7-13.9-0.2
		C49.8,53.4,34.3,41.9,18.9,30.2c-1.8-1.3-3.6-2.6-6.3-4.5c0,23.7,0,46.1,0,68.6c39.9,0,79.5,0,119.2,0
		C131.8,71.5,131.8,49.2,131.8,25.6z M16.6,13c1.6,1.5,2.4,2.5,3.3,3.2c16.1,12.2,32.3,24.2,48.3,36.5c3.3,2.5,5.3,1.9,8.2-0.3
		c15.7-12,31.6-23.8,47.4-35.6c1.2-0.9,2.3-2.1,4-3.8C90.5,13,54.1,13,16.6,13z"/>
</g>
</svg>
