<?xml version="1.0" encoding="utf-8"?>
<!-- Generator: Adobe Illustrator 22.0.1, SVG Export Plug-In . SVG Version: 6.00 Build 0)  -->
<svg version="1.1" id="Layer_1" xmlns="http://www.w3.org/2000/svg" xmlns:xlink="http://www.w3.org/1999/xlink" x="0px" y="0px"
	 viewBox="0 0 106.3 107.1" style="enable-background:new 0 0 106.3 107.1;" xml:space="preserve">
<g>
	<path d="M52.7,106.9c-14.7,0-29.4,0-44.1,0c-7.5,0-8.6-1.4-8.6-11.2c0-28.1,0-56.2,0-84.2C0,2.3,1.6,0.2,8.4,0.2
		c30,0,60.1,0,90.1,0c7.2,0,8.5,1.8,8.5,11.7c0,27.4,0,54.9,0,82.3c0,9.7-2.1,12.7-9.2,12.7C82.7,106.9,67.7,106.9,52.7,106.9z
		 M97.9,25.6c-1.9,1.8-3.3,2.9-4.6,4.3C81.7,41.7,70,53.4,58.7,65.5c-3.9,4.2-6.7,3.7-10.4-0.2C37,53.4,25.5,41.9,14,30.2
		c-1.3-1.3-2.7-2.6-4.7-4.5c0,23.7,0,46.1,0,68.6c29.7,0,59.1,0,88.6,0C97.9,71.5,97.9,49.2,97.9,25.6z M12.3,13
		c1.2,1.5,1.8,2.5,2.5,3.2c12,12.2,24,24.2,35.9,36.5c2.4,2.5,4,1.9,6.1-0.3c11.7-12,23.5-23.8,35.2-35.6c0.9-0.9,1.7-2.1,3-3.8
		C67.2,13,40.2,13,12.3,13z"/>
</g>
</svg>
