<svg id="Layer_1" data-name="Layer 1" xmlns="http://www.w3.org/2000/svg" viewBox="0 0 135.33 135.28"><title>insta</title><path d="M135.69,34.83v66c-.22,1.38-.37,2.78-.68,4.14-3.44,15.33-12.72,25.15-27.86,29.36-2,.54-4,.74-6.07,1.1H35c-.43-.07-.85-.18-1.28-.23a33.22,33.22,0,0,1-10.67-2.81C8.56,125.56.73,114.06.51,98,.23,77.9.43,57.82.44,37.75A35.54,35.54,0,0,1,5.19,19.44C12.64,6.8,23.81.33,38.49.25c19.72-.1,39.44,0,59.17,0a35.77,35.77,0,0,1,7.6.68c15.32,3.38,25.11,12.7,29.32,27.81C135.13,30.73,135.32,32.8,135.69,34.83ZM123.7,68q0-14.72,0-29.44a26.71,26.71,0,0,0-1.36-9.09C118.5,18.7,109.25,12.24,97.54,12.22c-19.63,0-39.26-.06-58.89.06a29.21,29.21,0,0,0-8.93,1.36c-10.82,3.64-17.27,13-17.28,24.7,0,19.67-.07,39.35.05,59a28.79,28.79,0,0,0,1.35,8.81c3.6,10.76,12.94,17.27,24.54,17.3q29.71.07,59.42,0A25,25,0,0,0,119,112.8a25.4,25.4,0,0,0,4.73-15.5C123.68,87.53,123.7,77.76,123.7,68Z" transform="translate(-0.36 -0.19)"/><path d="M102.92,67.91A34.86,34.86,0,1,1,68.08,33,35,35,0,0,1,102.92,67.91ZM68.1,45A22.83,22.83,0,1,0,90.89,67.89,22.85,22.85,0,0,0,68.1,45Z" transform="translate(-0.36 -0.19)"/><path d="M104.37,22.86a8.77,8.77,0,1,1-8.8,8.7A8.84,8.84,0,0,1,104.37,22.86Z" transform="translate(-0.36 -0.19)"/></svg>