<svg id="Layer_1" data-name="Layer 1" xmlns="http://www.w3.org/2000/svg" viewBox="0 0 75.2 75.2"><title>linkedIn</title><path d="M75.2,3.23V72a1.77,1.77,0,0,0-.15.31,4,4,0,0,1-4,2.91q-33.4,0-66.81,0a4.61,4.61,0,0,1-2-.44,4,4,0,0,1-2.24-4Q0,37.59,0,4.4a5.93,5.93,0,0,1,0-.73A4,4,0,0,1,2.37.36C2.65.22,3,.12,3.24,0H72a16.27,16.27,0,0,1,1.66.86A4.57,4.57,0,0,1,75.2,3.23ZM29,27.65V67.32H41.24v-.91c0-6.09,0-12.19,0-18.28a28.13,28.13,0,0,1,.47-5.1c.74-3.73,3-5.5,6.81-5.55,3.19,0,5.26,1.42,6,4.53a25.45,25.45,0,0,1,.55,5.38c.06,6.36,0,12.72,0,19.09v.85h12.3c0-.24,0-.43,0-.62,0-7.07,0-14.14,0-21.22a32.73,32.73,0,0,0-1.3-10.36,11.11,11.11,0,0,0-5.33-6.72A16.93,16.93,0,0,0,49.57,27a12.25,12.25,0,0,0-8.47,5.76,2.5,2.5,0,0,0-.15.38l-.23-.16V27.65ZM8.83,67.32H21.11V27.65H8.83ZM22.12,15.07a7.25,7.25,0,0,0-7.07-7.23,7.24,7.24,0,0,0-7.25,7,7.25,7.25,0,0,0,7,7.35A7.24,7.24,0,0,0,22.12,15.07Z"/></svg>