<svg id="Layer_1" data-name="Layer 1" xmlns="http://www.w3.org/2000/svg" viewBox="0 0 75.2 75.2"><title>tumblr</title><path d="M75.2,3.23V72a1.77,1.77,0,0,0-.15.31,4,4,0,0,1-4,2.91q-33.4,0-66.81,0a4.61,4.61,0,0,1-2-.44,4,4,0,0,1-2.24-4Q0,37.59,0,4.4a5.93,5.93,0,0,1,0-.73A4,4,0,0,1,2.37.36C2.65.22,3,.12,3.24,0H72a16.27,16.27,0,0,1,1.66.86A4.57,4.57,0,0,1,75.2,3.23ZM52.41,55.9c-.57.17-1.06.33-1.55.46a11.41,11.41,0,0,1-4.5.47,4.66,4.66,0,0,1-4-2.95,10.44,10.44,0,0,1-.68-4.1c0-5.41,0-10.82,0-16.23,0-.23,0-.47,0-.79H53.14V22.87H41.75V7.24H32c0,.24-.08.43-.1.63A20.62,20.62,0,0,1,27.21,19.2a14.61,14.61,0,0,1-6.72,4.92c-.45.15-.52.39-.52.8,0,2.47,0,4.94,0,7.42,0,.18,0,.37.06.62h6.82v.94c0,5.66,0,11.31,0,17a30.38,30.38,0,0,0,.48,5.4c1.09,5.51,4.29,9.26,9.74,10.84a25.92,25.92,0,0,0,16.34-.87,7.1,7.1,0,0,0,1.48-.81.6.6,0,0,0,.2-.52C54.24,61.93,53.34,59,52.41,55.9Z"/></svg>