<svg id="Layer_1" data-name="Layer 1" xmlns="http://www.w3.org/2000/svg" viewBox="0 0 659.05 220.28"><defs><style>.cls-1{fill:#e5a328;}</style></defs><title>bubble</title><path class="cls-1" d="M659,65.81c-.91-3-3.27-4.45-6.58-4.07-8.08.93-16.14,2.08-24.25,2.66-28.56,2.07-57.18,2.68-83.73,3.11-24.87-.25-47.67-.58-70.36-3.05-17.67-1.92-34.75-6.11-50.34-15.07-15.87-9.13-27-21.15-24.68-41.25a14.42,14.42,0,0,0-.1-4c-.79-4.65-3.83-5.76-7.37-2.74-1.64,1.41-3.11,3-4.85,4.3a213.25,213.25,0,0,1-58,29.71c-43.86,14.86-89,20.12-135.22,17.47C160.87,51,128.48,48.37,97.81,35.71c-1.5-.62-3.09-1.37-4.57.28s-.51,3.3.15,4.65c2.73,5.58,4.39,11.5,6,17.44,2.66,9.69,3.34,19.11-3.91,27.34A76.62,76.62,0,0,1,84.73,95.8c-15.34,11.75-32.57,20-50.13,27.76A170.68,170.68,0,0,1,5,133.85c-2.61.61-5.37,2.16-4.82,5.41.52,3,3.38,3.82,6.12,4.24a11.1,11.1,0,0,0,2,0,226.4,226.4,0,0,1,37.35,2c16.92,2.5,33.31,6.66,47.68,16.5,13.54,9.27,14.64,22.29,3,34-1.52,1.53-3.22,2.9-4.69,4.48-1.78,1.91-3.1,4.49-1.75,6.75,1.51,2.52,4.57,1.59,6.82.82,2.49-.86,4.79-2.11,7.46-2.66,19.87-4.09,39.8-7.81,59.88-10.64,17.78-2.5,35.62-4.87,53.65-4.31,10.21.31,20.31,1.55,29.2,7.2,5.68,3.61,6.82,8.11,4.07,14.16-.42.91-.87,1.8-1.25,2.73-.84,2,.17,3.54,1.61,4.83s3.48,1.6,5,.26c3.05-2.68,6.81-3.33,10.5-4.25,21.95-5.45,44.17-9.52,66.48-13.26,39-6.54,78.13-12,117.7-13.42,46.72-1.7,93.16.25,139,10.5,12.17,2.72,24.46,4.85,36.73,7.09,2.53.46,6.14,1.07,6.9-2.08s-2.49-4-5.08-5c-3.53-1.37-7.3-2.73-10.17-5.06-13.41-10.89-25.51-23-32.87-39-6.92-15-8.62-30.12.75-44.8,6.59-10.31,16.84-16.36,27.25-22.08C626.71,81.13,641.16,77,655.2,71.75,658.07,70.69,660,69,659,65.81ZM601,85.69c-15.25,9.23-26.75,21.39-29.38,40-2.13,15,2.85,28.27,10.16,40.87a84.33,84.33,0,0,0,17.08,21.38c1,.84,2.12,1.63,2.47,3.38-15.15-1.29-29.8-4.93-44.66-7.14-13.17-1.95-26.37-3.6-39.63-4.42a542.4,542.4,0,0,0-55.43-1c-24.76,1-49.41,3.34-74,6.51-30.19,3.89-60.23,8.59-90.09,14.4-10.93,2.12-21.76,4.73-32.63,7.15-1.59.36-3.25,1.44-3.62-1.45-1.34-10.47-8.48-15.69-17.56-19-14.42-5.32-29.36-5.3-44.38-4.25-30.18,2.13-59.9,7.62-90.19,13.33,1.06-3.34,2.14-6.08,2.79-8.92,3.23-14.13-1.41-24.82-14.93-33.9-13-8.71-27.61-13.06-42.76-15.94-6-1.14-12-2.34-18.89-2.17,2.39-3.41,5.51-4.24,8.28-5.47,16.48-7.32,32.56-15.41,46.74-26.67,7.84-6.23,15.16-13.17,18.37-23.15,3-9.42.49-18.41-2.5-27.32-.31-.91-1.29-1.87-.6-2.75.88-1.1,2.15-.39,3.23,0,17.09,5.92,34.91,8.38,52.74,10.34a460.56,460.56,0,0,0,61.79,2.91c40.86-1,80.77-7.54,118.94-22.73A233.17,233.17,0,0,0,388.92,15c1.63.63,1.2,2,1.24,3,.56,14.54,9.15,24.23,19.84,32.5,16.26,12.59,35.11,18.44,55.25,21.13,36.94,4.94,74.06,4.07,111.17,4,13,0,25.93-.86,38.87-1.82,2.26-.17,4.54,0,7.74,0C615.14,78,607.86,81.52,601,85.69Z"/></svg>