<?xml version="1.0" encoding="utf-8"?>
<!-- Generator: Adobe Illustrator 22.0.1, SVG Export Plug-In . SVG Version: 6.00 Build 0)  -->
<svg version="1.1" id="Layer_1" xmlns="http://www.w3.org/2000/svg" xmlns:xlink="http://www.w3.org/1999/xlink" x="0px" y="0px"
	 viewBox="0 0 498.3 540.6" style="enable-background:new 0 0 498.3 540.6;" xml:space="preserve">
<g>
	<path d="M162.7,244.9c-2.3,3.5-5.1,6.7-7.7,10c0.5,0.3,0.9,0.6,1.4,1c4.6-6.6,9.2-13.1,14.5-20.7c-3.1-0.1-4.4-0.2-5.6-0.3
		c6.1-8.1,12.1-16.2,18.3-24.2c0.6-0.8,2-1.1,3.1-1.2c5.3-0.8,10.5-1.5,16.2-2.3c1.4,8.7,0.1,16.9-3.2,24.1
		c7.7-3.1,15.5-6.9,23.7-9.1c4-1.1,9.2-2.2,13,2.2c1.1,1.3,3,1.9,4.8,3.1c-1.3,0.9-2.4,1.7-4.4,3.1c3.4,1.9,6.2,3.4,9.9,5.4
		c-0.8,4.5-1.7,9.4-2.5,14.4c-1.1,6.5-1.9,13.1-3.1,19.6c-0.7,3.7-2,7.2-2.9,10.9c-0.5,1.7-0.9,3.4-1.4,5.7c0.4,0-0.5,0-1.4,0
		c2.9,4.5,2.7,9.4,0.8,13.8c-1.8,4-0.5,7.4-0.1,11.2c0.2,1.8,0.2,3.7,0.3,6.3c1.2,0.4,3.5,1,5.7,2c0.3,0.1-0.4,2.2-0.6,3.4
		c4.3-2.3,13.9,8.3,7.1,6.4c-13.3-12.3-7.3-6,4-4.2c9.2,0.6,17.2-2.9,23.6-9.3c4.9-4.8,8.8-10.6,13.3-15.9c1.8-2.2,4.4-3.9,5.6-6.3
		c1.7-3.7,2.5-7.9,3.8-12.3c-5.3,0.3-10.5,0.5-16.4,0.8c0,0.1-0.3-1.2-0.6-2.3c-3.1,1.3-6,2.5-8.9,3.6c-2-4.3-4.2-8.4-5.9-12.6
		c-2.6-6.5-0.3-9,6.7-8.4c1.8,0.2,3.8-1.9,5.7-2.9c-0.1-0.4-0.3-0.8-0.4-1.2c1.8,0.7,3.5,1.5,5.3,2.1c1.7,0.6,3.4,2.2,4.9-0.4
		c0.2-0.4,1.6-0.6,1.7-0.5c3.2,5.1,7.7,1.2,11.4,1.3c4.5,0.1,9-1.7,13.5-2.8c0.4-0.1,0.8-0.6,1-1c3.2-7.6,9.5-13,14.2-19.6
		c2.8-4,5.8-8.1,7.8-12.5c3.7-8.4,10.3-13.9,17.5-19c2.6-1.8,5.2-4.2,8.1-4.8c4.2-0.9,9-1.5,13-0.3c6.4,2.1,13.2,4.2,17.5,10.2
		c0.7,1,1,2.3,1.8,3.1c2.3,2.3,4.8,4.3,7,6.6c0.8,0.8,1.2,2.2,1.4,3.5c0.5,2.6,0.6,5.2,1.1,7.8c0.5,2.6,1,5.2,2,7.6
		c1.4,3.2,3.2,6.3,5,9.3c0.3,0.5,1.4,1.2,1.9,1c5.5-1.9,11.9-0.6,16.7-5.2c1-1,3.8,0,5.7-0.2c2.4-0.2,5.3,0.1,7-1.1
		c4.4-3.2,7.6-3.4,12.1-0.2c1,0.7,3,0.7,4.3,0.3c4.6-1.5,9-3.2,14-5.1c-0.1-0.1,0.4,0.8,0.2,0.4c4.2-0.4,7.9-0.7,11.6-1
		c1.1,8.2,5.7,12.2,11.5,10.7c0,0.3,0,0.7,0,1c-0.3,0.5-0.6,1-1,1.5c-1.1,1.4-2.2,2.8-3.4,4.2c-1.2-1.2-2.4-2.3-3.7-3.6
		c-0.4,2.5-0.9,5.4-1.4,8.2c1.7,0,3.8,0,7,0c-3.3,2.8-3.3,2.5-7.5,2c-1.8-0.2-3.6,1.4-5.5,1.7c-2.9,0.6-6.3,2-6.7-3.3
		c-0.1-1.6-1.9-3-3.7-4c1.2,2.8,2.3,5.7,3.6,8.8c-3.9,0.6-8,1.4-12.3,1.7c-1.6,0.1-3.4-0.7-5-1.2c-5.5-1.9-8.6,2.5-12.7,4.5
		c-2.2,1.1-5.8,1.6-7.7,0.6c-2.9-1.5-5.2-1.7-7.4,0.1c-2.6,2.2-5,2.3-8.1,0.9c-3.5-1.6-9.1,2.9-8.3,6.6c0.5,2.7,1.9,5.2,3,7.8
		c0.2,0.6,0.9,1.2,0.8,1.7c-2,8.2,3,14.8,4.8,22.1c0.4,1.4-0.2,3-0.4,5.5c-0.5-0.2,0.3,0.1,1.4,0.6c-2.3,3.8-2,6.8,2.4,9.4
		c1.3,0.8,1.9,4.4,1.2,6.2c-0.6,1.7-3.2,2.9-5.1,3.8c-1.2,0.6-2.9,0.1-3.5,0.1c-1.9,2.8-3.3,5.1-4.8,7.4c-0.6,0-1.3,0-1.9-0.1
		c-1-3-2.1-6-3-8.8c-1.4-0.6-3.3-1.4-5.3-2.3c0.5,1.8,1.1,3.6,1.4,5.5c0.3,1.8,1.7,4.4-2.2,3.8c-0.3,0-1.3,1.1-1.2,1.7
		c0.7,6.1-3.7,6.8-8.2,8.1c0-4.2,0-8,0-11.7c-2.2,0.8-4,1.5-5.7,2.2c-0.3-0.5-0.6-1-0.9-1.5c1-1.3,1.9-2.5,3.1-4.1
		c-2.8-4.1-5.8-8.1-8.5-12.4c-0.6-0.9,0-2.5,0-3.7c0.1-1.6,0.8-4.1,0-4.7c-3.1-2.3-2.2-5.5-2-8.1c0.4-5-4.1-9.6-1-15
		c0.6-1-1.9-3.5-2.5-5.4c-0.4-1.4-0.1-3,1-5.8c-3.9-1.5-7.8-3-12.2-4.7c-1.4,7.6-7.4,4.1-9.5,3.2c-4-1.8-7.3,1.1-10.9-0.1
		c-1.5-0.5-3.7,1.8-5.6,2.2c-2.2,0.5-4.5,0.4-6.8,0.3c-2.6-0.1-5.8,0.8-6.9,2.5c-2.2,3.5-4.2,7.1-6.2,10.7c-0.1,0.1-0.1,0.3-0.2,0.5
		c-0.8-0.4-1.6-0.8-2.4-1.3c-0.3,3.4,0.8,7.3-3.7,8.6c-0.4,0.1-1.1,0.5-1.1,0.6c1.1,5.4-5.1,5.2-6.5,8.5c-0.6,1.4-1,2.8-0.8,4.5
		c-8.1,9.2-27.9,18.5-53.5,25.3c-6.6-3.9-7.8-3.1-2.5-9.2c0,3.7,28.7-4.6,28.7,0.5c-6.9-1.6-36.8,16.4-40.1,10.2
		c0.6-0.5,1.4-1.1,2.9-2.3c-1.8,0.3-2.7,0.3-3.4,0.6c-0.8,0.3-1.4,1-2.6,1.7c-3.8-1.8-10.6-1.2-11-9.7c-1.4,1.2-1.9,1.7-2.5,2.2
		c-2-2.5-4.1-4.9-5.9-7.5c-0.8-1.1-1.2-2.5-2.2-4.8c0.5-0.8,1.8-2.8,3.3-5.2c-1.9,0.7-3.2,1.2-6.2,2.3c3.7-10.5-0.4-20.9,4.2-29.4
		c0.6-4,1-7.2,1.7-10.4c1.7-7.8,3.5-15.6,5.2-23.5c0.6-2.7,1.2-5.3,1.8-8.1c-2.1,0.4-3.9,0.8-5.6,1.1c-0.1-0.4-0.2-0.9-0.3-1.3
		c-5.6,3.8-9.9,8.6-12.5,15.7c-3.6,0.7-4.1,4.7-5.1,8.2c-0.9,3.1-5.1,7.4-7.1,7.3c-1.2,2.9-1.6,6.8-3.6,7.9
		c-3.1,1.8-3.5,3.3-2.3,5.1c-1.3,1.7-2.5,2.9-3.3,4.3c-0.8,1.3-1.1,2.9-1.9,5.1c-0.2-0.3,0.4,0.6,1.1,1.5c-1,0-2.3-0.5-2.8,0
		c-1.1,0.9-1.8,2.3-2.5,3.2c1.1,1.3,2.8,2.6,2.6,3.2c-2.6,6.6-5.4,13-8.4,19.5c-0.3,0.6-1.7,0.6-2.6,0.8c-0.2-0.9-0.4-1.8-0.7-3.3
		c-1.2,1.5-2.2,2.7-4.1,5.2c0.2-3.8,0.3-6.2,0.4-8.7c-0.3-0.2-0.6-0.3-0.9-0.5c-2.4,4.1-4.8,8.1-7.2,12.2c-3.5,0.8,1.2-7.9-4.3-4.6
		c-3.1-11.8,2.6-22.1,6.2-33c3.5,2.8,4.8,2.6,8.8-1.3c-0.7-0.2-1.2-0.5-1.7-0.4c-1,0.2-1.9,0.7-2.9,1c0.2-0.8,0.9-2,0.6-2.3
		c-4.3-5.3,0.4-9.5,1.8-14c2-6,4.5-11.8,6.4-17.8c0.8-2.5,0.6-5.4,0.8-8.1c-0.4-0.3-0.8-0.6-1.1-0.8c-1.4,1.5-2.8,3.1-4.3,4.5
		c-1.1,1-2.3,2-3.6,2.7c-3.3,1.7-4.5,3.7-4.2,7.7c-0.9,0.3-1.9,0.6-2.8,1c-1,0.5-2,1-3.8,2c0.8-1.8,1.4-2.9,1.9-3.9
		c-0.5-0.2-0.9-0.5-1.4-0.7c-1,1.8-2,3.7-3,5.5c0.4,0.3,0.7,0.5,1.1,0.8c1.6-0.5,3.3-1,4.9-1.6c0.1,0.2,0.3,0.3,0.4,0.5
		c-1.5,1.2-2.9,2.3-4.4,3.5c1.6,1.4,5,3-0.3,4.6c-1.3,0.4-2,2.5-3.3,3.2c-1.5,0.9-3.4,1.3-4.6,1.7c-2.4,4.9-4.8,10-7.6,14.9
		c-0.5,0.8-3,0.4-4.9,0.6c0.3,0.5,1.1,2.1,1.9,3.8c-2.1,1.3-4.2,2.7-6.7,4.3c0.9,4.1-4,9.5-13.3,13.3c0.7,1.4,1.3,2.8,2,4.2
		c-5.8-0.7-8,1-7.9,6.3c-2.6,0.8-5.2,2.4-7.8,2.3c-1.4-0.1-3.7-2.7-3.9-4.4c-0.9-6.9-1.2-13.8-1.8-20.7c-0.1-1.3,0-2.8-0.6-3.9
		c-0.4-0.8-1.7-1.4-2.7-1.6c-0.7-0.1-2.1,0.8-2.1,1.2c0.2,6.8-6.3,7.9-9.8,11.6c-2.5,2.6-5,5.2-8,7.2c-3.5,2.3-6.9,6.1-12,3
		c-0.7-0.4-2.5-0.3-2.8,0.3c-4,5.7-10.3,7.6-16.3,10.1c-4.2,1.8-7.7,5.5-12.7,4.5c-2.1-0.4-4-1.5-6.1-2.4c-0.3,1.5-0.6,3.2-1,5.7
		c-4.3-2.7-8.1-4.5-8.9-9.9c-0.4-2.9-2.3-5.5-3.5-8.3c0-3,0-6,0-9c1.3-2.9,3-5.6,3.7-8.6c3.8-15.2,14.2-25.5,25.5-35.2
		c2.6-2.2,4.5-5.3,7.3-7.1c8.8-5.8,15.4-14.8,25.9-18c0.9-0.3,1.7-1,2.5-1.6c5.8-4.4,11.5-8.9,18.5-11.5c3.1-1.2,5.5-4.3,8.6-5.8
		c2.3-1.1,5.1-4.2,7.8-0.3c2.9-4.5,11.9-8.4,15.6-7.2c2.2-3.3,4.3-6.4,6.5-9.5c0.2-0.2,1.3-0.2,1.4,0c1.9,3.6,3.7,7.3,5.6,11.3
		c1.1-0.2,3.6-0.7,6.1-1.3c0.4,0.3,0.8,0.7,1.2,1c-15.5,20.8-16.5,46.3-25,69.3c0.5,0.3,1,0.5,1.5,0.8c1.5-1.9,3-3.8,4.5-5.7
		c12-15.9,24-31.9,36.1-47.8c0.9-1.2,2.6-1.9,4.2-3 M50.8,283.6c-5.5,0.7-6.8,8.1-12.7,8.1c-0.2,0-0.6,0.8-0.7,1.2
		c-0.7,1.9-1.2,3.8-2,5.6c-0.7,1.5-2.1,2.6-2.6,4.1c-1.6,4.2-2.5,8.6-4.5,12.6c-2,4.2-1.9,9.1,1.3,12.5
		c18.2-7.2,75.4-75.6,77.1-85.4c-20.1,9.9-39.3,22.7-57.1,38.4C49.7,281.1,50.3,282.3,50.8,283.6z M348,257.6c7.9-0.8,15-1.4,22-2.2
		c4.4-0.5,8-3.1,8.3-7.3c0.4-5.1,0.7-10.6-2.6-15.2c-0.3-0.4-0.7-0.6-1.2-0.9c-2.4-1.4-4.8-2.6-7.1-4.1c-2.5-1.6-6.2-0.3-7.8,2.3
		c-2.8,4.6-6,9-9.1,13.4c-2.2,3-4.6,5.8-7.4,9.2c3.3,0.8,5.6,1.3,8.5,2C350.4,255.7,349.6,256.4,348,257.6z M219.1,327.8
		c1.7-0.8,2.9-1.4,4.1-1.9c0.3,1.6,0.6,3.1,1,4.7c0.3-0.1,0.7-0.1,1-0.2c-0.1-0.8-0.2-1.6-0.4-3c4.8,3.3,3.9-1.5,6.3-3.3
		c-3.8-0.6-6.6-0.9-9.3-1.5c-0.6-0.1-1.2-1.5-1.3-2.4c-0.2-1.4-0.1-2.9-0.1-4.5C214.1,319.5,221.4,323.7,219.1,327.8z M30.3,296.4
		c1.2-1.9,2.1-3.7,3.3-5.1c0.8-0.9,2.2-1.2,3.4-1.8c-0.9-1-1.8-1.9-3-3.2C33.4,290.4,28,292.1,30.3,296.4z"/>
	<path d="M239.2,530.8c-4.9,2.4-8.7,4.3-13.5,6.6c0.5-2.2,0.8-3.2,1.1-4.8c-1.2,0.2-2.5,0.1-3.1,0.7c-0.4,0.5,0.1,1.8,0.1,2.8
		c0,1.1,0,2.3-0.1,3.4c-0.3,0-0.7,0-1,0c-0.8-2.7-2.2-3.9-5.3-3.1c-2.9,0.7-5.9,0.8-8.3,0.1c-1.6-1.3-3-2.7-4.8-3.8
		c-7.3-4.3-13.4-9.4-14.9-18.6c-0.6-3.9-3.3-7.5-4.1-11.5c-1-5.3-1.1-10.7-1.4-16.1c-0.2-4.8-0.1-9.5,0-14.3c0.1-2.7,0.6-5.4,0.7-8
		c0-1.7-0.6-3.3-1.1-5.5c0.3-0.1,1.5-0.3,2.7-0.6c0-0.4-0.1-0.9-0.1-1.3c-1.3,0.1-2.7,0.3-3.8,0.4c-0.2-2-0.7-3.9-0.7-5.9
		c0-1.4,0.5-2.9,0.8-4.3c0.2-0.8,1-1.9,0.7-2.2c-4.1-4.4,0.1-8.6,0.5-12.7c0.3-3.5,3.2-6.8,4.8-10.2c0.3-0.7,0.2-1.6,0.2-2.5
		c-0.3-6,3.3-10.1,6.8-14.2c1.8-2.2,3.7-4.5,5.6-6.6c3.8-4.1,7.8-8.1,11.7-12.2c1.4-1.5,2.7-3.1,4.9-5.7c4.2-1.7,10-4,15.1-6.1
		c4.6,2.3,9.2,4.6,14,7c1.6-4,3.9-4,6.9-2.3c1,0.6,2.3,0.7,3.5,1c1.1,0.3,2.5,0.1,3.2,0.7c3.7,2.9,7.3,6.1,10.6,9
		c0.2,1.8,0.3,3.6,0.5,5.4c0.5,0,1-0.1,1.5-0.1c-0.1-1.1-0.2-2.1-0.3-3.3c4.5,1.4,7.2-0.6,9.6-4.3c2.9-4.5,6.9-8.2,10.5-12.3
		c0.6-0.7,1.6-1.3,2-2.1c3-6.7,6.8-12.6,12.6-17.5c2.4-2,2.9-6.1,4.9-8.8c2.1-2.9,4.8-5.3,7.2-7.9c3.4-3.7,6.7-7.3,10.1-11
		c1.3-1.4,2.5-3.1,4.1-4.2c1.7-1.1,3.9-2.5,5.5-2.2c1.1,0.2,1.7,3.2,2.5,5c0.5,1.1,0.8,2.4,1.4,3.5c0.7,1.4,1.7,2.7,3.2,5.1
		c2.9,0,8.7-2.9,10.3,4.4c-1.2-0.1-2.3-0.1-3.5-0.2c-0.1,0.6-0.3,1.1-0.2,1.2c2.9,3,2.7,11,0.1,14.4c-1,1.3-0.9,3.4-1.3,5.2
		c-0.4,2.1-0.9,4.2-1.3,6.3c-0.2,1.3-0.9,2.7-0.5,3.7c2,5.5-0.9,7.9-6,9.4c2.6,3.9,5.1,7.9-0.7,11.1c-0.5,0.3-0.5,1.9-0.3,2.8
		c0.7,2.5,1.7,4.9,2.6,7.3c-0.4,0.2-0.7,0.4-1.1,0.6c-1.1-0.9-2.1-1.9-4-3.5c0.7,3.2,1.1,5.4,1.5,7.3c1.1-0.1,2.1-0.1,3.1-0.2
		c-0.1,0.7-0.1,1.5-0.2,2.2c-0.4,3.2-0.6,6.5-1.2,9.7c-0.2,1.2-1.4,2.2-2.4,3.7c5.3,5.4,2.4,12.2,1.6,18.9
		c-0.5,4.1-0.1,8.4-0.1,12.6c0.5,0.1,0.9,0.2,1.4,0.4c2.4-3.8,5.5-7.3,7-11.5c1.5-4.1,2.8-7.7,6.6-11c3.2-10.4,6.8-22.1,10.4-33.8
		c0.6,0.1,1.1,0.1,1.7,0.2c-1-1.3-1.9-2.5-2.9-3.8c0.4,0.1,0.9,0.3,1.3,0.4c1.1-3.3,2.2-6.5,3.2-9.6c0.5-0.1,2.1-0.3,2.1-0.4
		c-0.1-1.8-0.4-3.5-0.8-5.2c-0.3-1.6-1.1-3.1-1-4.6c0.1-1,1.3-1.9,2-2.9c0.9,0.9,1.7,1.7,3,3.1c0.8-2.4,1.7-5.1,2.7-8.2
		c0.6,0.8,1.1,1.5,1.7,2.3c0.3,0,0.6,0,0.9,0c-0.1-1.6-0.6-3.3-0.2-4.7c0.5-1.6,1.9-3,2.9-4.4c1.1,1,2.6,1.7,3.2,3
		c1.6,3.1,2.9,6.4,4.3,9.4c1.7-0.5,3.6-1.2,4.9-1.6c6.4,7.2,1.6,11.8-2.3,17c0.5-0.1,1.1-0.1,1.5-0.4c0.4-0.2,0.6-0.7,0.8-1.1
		c0.4,0.3,0.7,0.6,1.1,0.9c-1.4,1.3-2.8,2.7-4.6,4.3c1.3,0,2.4,0,2.6,0c0,6.9,0.8,14-0.2,20.8c-1.5,9.9-0.7,19.8-1.1,29.7
		c-0.2,4.6,1.3,9.2,2,13.9c0.4,2.4,0.3,5,1.3,7.1c1.6,3.2,4,5.9,5.7,8.4c7.5-4.8,14.4-9.2,21.4-13.7c1.1,1.4,2.1,2.8,3.2,4.1
		c-3,2.7-5.9,5.3-8.9,8c0.3,0.4,0.5,0.8,0.8,1.2c4.1-3,8.3-6,12.5-9c1.3,6.3-5.3,6.4-7.4,10c1.2,0.8,2.4,1.6,3.6,2.3
		c2.3-2.8,4.6-5.7,6.9-8.6c2.6-3.3,5.5-2.1,7.5,0.2c0.6,0.6-1,3.8-2.3,5.4c-1.4,1.8-3.5,3-5.6,4.6c2,1.4,2.9,2.1,3.7,2.6
		c-0.1,0.4-0.1,0.6-0.1,0.7c-5.3-1.3-3.3,8.2-8.9,6.3c1.9-2.6,3.8-5.1,5.7-7.7c-10.2,5.8-10.2,5.8-12,3.3c-0.9,1.6-2,3.5-3.1,5.4
		c-1.3-0.8-2.5-1.6-3.9-2.5c-0.4,2.3-0.9,4.8-1.3,7.1c-2.4,0.5-4.9,1.1-8.3,1.8c2.5,1.8,4,3,5.6,4.1c0,0.3-0.1,0.6-0.1,0.9
		c-0.8-0.1-1.9,0-2.5-0.5c-4.2-3.8-6.2-3.9-9.6,0c-0.6-0.7-1.2-1.5-1.9-2.3c-1.8,1.7-3.6,3.4-5.1,4.9c-2-0.9-4.2-1.8-6.5-2.8
		c0.5-0.3,1-0.5,1.5-0.8c-2.1-0.4-4.4-0.4-6.2-1.4c-0.9-0.5-0.9-2.6-1.8-3.7c-1.1-2.1-2.1-4.3-3.3-6.4c-0.5-0.8-1.1-1.9-1.8-2.2
		c-2.6-1.1-3.8-2.4-1.6-5c0.2-0.2-0.3-0.9-0.3-1.3c-0.4-2.6-0.7-5.2-1.4-7.8c-0.4-1.5-1.5-2.9-1.8-4.4c-0.4-2-0.4-4.1-1.8-6.6
		c-1.1,3.9-2.3,7.8-3.5,12c-0.6-1-1.2-2-2.1-3.5c-0.6,3.5-1.1,6.1-1.5,8.7c0.5,0.1,1,0.2,1.5,0.4c-2.4,2.8-4.7,5.6-7.1,8.4
		c-0.3,0.3-1.2,0.5-1.2,0.7c1.3,7.6-3.2,2.8-5.8,2.6c-2.9,3.3-5.6,7.8-11.4,4.2c-0.4-0.2-2.3,2.2-3.6,3.2c-2,1.6-4,3.4-6.3,4.3
		c-1,0.4-2.8-1-4.9-1.9c2.2-1.6,3.4-2.6,5.4-4.1c-3.4-0.5-6-0.9-9-1.3c0.9-1.6,1.4-2.4,1.8-3.1c-1.5-0.9-2.9-1.7-4.3-2.5
		c0.4-0.2,0.8-0.4,1.2-0.6c-0.5-1.6-0.8-3.2-1.4-4.7c-0.6-1.6-1.2-3.3-2.1-4.7c-2-3.1,1.4-7.7-2.9-10.2c-0.2-0.1-0.2-1.3,0-1.4
		c4.3-2.6,0.4-5.1-0.1-7.6c-0.6-3,1-6-1.4-9.2c-1.6-2.1-0.7-6.3-0.6-9.5c0.2-6.2,0.9-12.5,0.9-18.7c0-3.6,1.5-6.8,1.8-10.2
		c0.4-3.8,0-3.8,1.2-4.6c-1.4-1.5-2.8-3-4.3-4.5c0.3-0.3,0.6-0.6,0.8-0.8c0.9,0.5,1.8,1,3.1,1.7c-0.2-1.7-0.5-3.7-0.8-5.9
		c-4.6,1.9-5.9,5.4-7.5,9.4c-1.1,2.6-5.2,4-8.8,6.4c1.5,1.4,2.9,2.7,4.7,4.3c-2.7-0.3-5.3-0.6-8.7-0.9c1.2,1.6,2.1,2.8,3,4.1
		c-3.3,2.2-6.2,4.7-3.7,9.4c0.4,0.7,0.2,2.1-0.3,2.9c-2.3,4.3,0.3,8.4,0.3,12.6c0,3.3,0.4,6.7,0,10c-0.7,5.2-1.6,10.3-3,15.3
		c-2.1,7.6-4.4,15.1-7,22.5c-1.1,3.2-2.9,6.3-4.9,9.2c-2.9,4.2-6.2,8.1-9.5,12.3c0.4,0.2,1.1,0.6,0.9,0.5c-2.8,2.7-5.8,5.6-9.6,9.2
		 M241.2,459.7c-7.4,3.9-13.6,7.2-20.1,10.6c1,1.9,1.7,3.4,2.4,4.8c-0.4,0.2-0.7,0.5-1.1,0.7c-1.1-1.3-2.2-2.6-3.3-3.9
		c-1.5,0.7-3.2,1.4-5,2.2c-0.2-1.7-0.4-3-0.6-4.3c-0.3,0-0.6,0.1-0.9,0.1c-0.2,1.4-0.4,2.7-0.6,4.1c-0.3,0.2-0.6,0.3-0.8,0.5
		c-0.2-0.9-0.5-1.8-0.4-1.5c-2.1,3-4,5.6-5.5,7.7c0.5,2.3,1.2,4.4,1.5,6.7c0.8,5.1,0.5,10.6,2.4,15.3c2.9,7.2,8.2,13.7,3.9,22.1
		c0,0,0.2,0.2,0.5,0.6c1.5-3,3-6,4.8-9.5c2.8,1.9,5.2,3.4,7.4,5.1c0.7,0.5,0.7,1.9,1,2.9c1.1-0.6,2.2-1.2,4.1-2.3
		c-1.9-0.8-2.9-1.3-3.9-1.7c0.8-5.3,3.5-3.4,4.9-2.2c3.3-1.2,5.8-1.9,8.1-2.9c6.8-3,8.8-10.3,13.2-15.4c2.7-3.2,3.9-7.6,6-11.4
		c1-1.7,2.6-3.1,3.2-3.9c4.9-14.2,7.4-28.2,5.8-42.8c-0.4,1.6-0.8,3.2-1.1,4.6c-2-1.9-4.2-4.5-6.1-2.2c0,3.6,0.7,6.2-0.2,7.9
		c-1.7,3.2-4.5,1.5-6.9,0.4c-0.5-0.2-1.3-0.4-1.6-0.2c-3.6,2.4-7.2,4.9-11.9,8.1 M242.5,398.3c-2.4,0.9-4.9,2.6-5.6,2.1
		c-5.5-4.3-9,1.1-10.7,3.5c-4.2,5.9-7.4,12.7-10,19.5c-2.5,6.4-4,13.3-5.6,20c-0.5,2.2-0.1,4.7-0.1,7.4c4.7-1.1,9.6-0.9,10.9-2.9
		c2.2-3.4,5.3-4.1,8-6c0.7-0.5,1.2-1.3,1.7-2c2.3-3.7,4-7.8,9.1-8.9c1.8-0.4,3.2-2.8,4.6-4.4c1.6-1.7,3.3-3.3,4.7-5.3
		c3.1-4.4,11-5.7,8.7-13.5c-0.4-1.2-1.4-2.8-2.5-3.1c-1.7-0.5-3.7-0.1-5.6-0.1C251.3,397.8,242.4,402.6,242.5,398.3z M321.3,382.6
		c-0.2,0.4-0.3,0.8-0.5,1.2c4.3,2,8.5,4,12.9,6.1c0.3-4.8,0.6-9.7,0.8-14c-1,0.6-2.2,1.4-3.4,2.1c4.1,3.4-1.2,4.9-1.1,8.3
		c-2.2-2.8-3.8-4.8-5.9-7.6c0,2.2,0,3.4,0,4.8C323,383.1,322.2,382.9,321.3,382.6z M302.7,388.8c0.6,0.4,1.1,0.8,1.7,1.2
		c1.4-7.7,11.4-9.3,11.7-17.9c0-0.5,1.8-1,3.2-1.8c-1.3-0.6-2.8-1.4-2.9-1.3C311.8,375.6,307.3,382.2,302.7,388.8z M271.5,494.8
		c-0.4-0.3-0.8-0.6-1.2-0.9c-3.9,5.3-7.8,10.5-11.6,15.8c0.4,0.3,0.7,0.5,1.1,0.8C263.6,505.2,267.5,500,271.5,494.8z M364.3,450.4
		c-0.6-0.4-1.3-0.8-1.9-1.2c-2.4,4.3-4.8,8.6-7.1,12.9c0.4,0.2,0.7,0.5,1.1,0.7C359,458.7,361.6,454.6,364.3,450.4z M204.8,523.6
		c0.4-0.4,0.8-0.9,1.3-1.3c-3.6-2.7-4.1-8.7-10.8-10.3C199.1,516.6,202,520.1,204.8,523.6z"/>
	<path d="M404.3-0.1c0.2,2.4,0.4,4.7,0.6,6.7c1.4,1,2.8,2.2,4.6,3.5c2,0.2,4.8,0.5,8.1,0.8c-0.5,5.1-0.6,9.7-1.5,14.2
		c-1.1,5.2-4.6,5.9-10.3,3.1c1.4,1.3,2.8,2.6,4.1,3.8c-1.5,0.9-3.3,2-5.5,3.4c-3.7-2.8-1.8-6.6-1.7-10.9
		c-3.9,5.8-7.7,11.5-11.6,17.3c-0.3-0.2-0.7-0.4-1-0.6c0.4-3.3,0.8-6.6,1.4-11.4c-2.5,2.3-4,3.6-5.2,4.7c0-5.2-0.4-10.7,0.2-16.1
		c0.4-3.5,1.1-8,6-6.7c1.7-2.3,3.1-4.2,4.4-6.1c0.1,0.1,0.1,0.2,0.2,0.3c1.1-2,2.1-4,3.2-6.1C401.6-0.1,403-0.1,404.3-0.1z"/>
	<path d="M68.6,199.6c-6.1-4.6-7.7-13.7-4.4-20.7c1.4-3,2-6.5,3-9.7c-0.4-0.1-0.8-0.3-1.2-0.4c-0.8,2.3-1.6,4.7-2.4,7
		c-1.2-37.9-5.4-75.2-14.4-111.2c-1.2,2.2-3,4.7-3.9,7.5c-0.5,1.5,1,3.5,0.8,5.2c-1.1,10-2.9,20-3.7,30c-0.8,11.3-0.9,22.7-1.1,34.1
		c-0.2,10.6,0.1,21.2-0.1,31.8c-0.1,8.2-0.8,16.3-0.9,24.5c-0.2,10,0.1,20-0.2,30.1c-0.2,5.5,0.2,11.7-2.2,16.1
		c-2.4,4.4-8,7.1-12.4,10.4c-0.8,0.6-2.2,0.4-3.9,0.6c1.2-29.2,2.3-58.2,3.5-87.2c0.4-0.3,0.8-0.6,1.3-0.9c0.6,1,1.1,2,1.9,3.3
		c1-0.9,1.9-1.7,3.6-3.2c-2-0.3-3.2-0.5-4.5-0.8c0.1-0.6,0.2-1.3,0.4-2.2c-1.1,0.3-2,0.6-2.7,0.8c0.7-9.2,1.2-18.4,2.3-27.5
		c0.8-7.1,2.3-14.2,3.2-21.3c0.6-4.4,0.2-9,0.8-13.4c0.3-2.3,2.3-4.4,3-6.8c0.3-1.3-0.6-3-1.3-4.3c3.6-17.1,2.5-35.8,15.5-51.2
		c3.2,2.4,7.3,4.1,9.4,7.2c6.3,9.1,8,20.1,10.8,30.7c-1.3,0.1-2.2,0.1-4.3,0.2c5.5,2.6,8,5.8,6.3,11.1c5.4-6.7,2.4-16.6,8.1-24
		c0.1-2-0.3-5.5,0.6-8.5c1.9-6.2,4.3-12.2,7-18.1c0.9-1.9,3.4-3,4.8-4.7c5-6.3,4.4-5.6,10.5-0.9c4.5,3.5,8.6,7,10.5,12.2
		c1.8,4.9,4.9,9.4,4.5,15.2c-0.2,2.4,2,5,2.9,7.1c1.5-5,2.9-9.8,4.3-14.6c1.2-4,2.1-8,3.5-11.9c4.4-12.2,8-24.8,18.9-33.2
		c0.5-0.3,0.7-1,1-1.5c3.6-5.5,5.7-5.5,10.3-0.9c2.9,2.9,6.4,5.4,9.8,7.8c4,2.9,5.2,6.7,5,11.4c-0.1,2.7,0.8,5.5,0.8,8.3
		c0.1,2.8,4.3,5.7-0.3,8.5c-0.4,0.2-0.1,2.7,0.6,3.6c5,7.6,2.4,16,2.8,24c0.2,4.8,0.7,9.6,0.9,14.4c0.1,2.1-0.4,4.1-0.5,6.2
		c-0.2,9.7,0,19.4-0.6,29.1c-0.4,6.7-2.1,13.3-2.6,20c-0.5,5.7,0.9,11.6-0.5,17c-1.1,4.3-0.1,10-5.1,13.1c-0.3,0.2-0.2,1.3-0.2,1.9
		c0,0.7,0.2,1.4,0,2c-0.1,0.2-1.3,0.4-1.5,0.2c-0.5-0.5-0.9-1.4-0.9-2c0.1-1.3,0.5-2.7-0.2-4.4c-0.7,1.5-1.5,3-3,6.1
		c-2.5-1.1-4.6-2-6.7-2.9c0.9-1.1,1.8-2.1,2.7-3.2c-2.3,3.1-4.6,6.1-6.9,9.2c-0.4-0.2-0.8-0.3-1.2-0.5c0-1.6,0-3.2,0-5
		c-3.1,1.1-4.3,0.1-4.2-3.5c0.4-10.8-0.1-21.7,1-32.4c0.6-6,0-11.9,1-17.9c1.1-6.9,0.4-14,0.4-21.1c0-5.2,0.1-10.4,0.2-15.6
		c0-1.8-0.1-3.7,0-5.5c0.1-8.7,0.3-17.5,0.4-26.2c0-0.2-0.4-0.5-1.1-1.3c-1.5,3.7-3.2,7-4.1,10.6c-1.4,5.7-1.6,11.8-3.6,17.3
		c-1.8,5.1-2.3,10.4-3.8,15.5c-2,6.5-1.3,13.8-1.9,20.8c-0.6,6.7-1.2,13.4-2.1,20c-0.5,3.5-1.6,7-2.1,10.5c-0.3,2.2-0.4,4.8,0.4,6.7
		c3.9,8.7-2.6,15.7-3.6,23.5c-0.1,0.4-1.7,0.7-1.1,1.3c-0.6,2.6-1.3,5.1-2,8.1c-8.8-4.1-11.5,2-15.2,8.7c0-8,0.3-14.7-0.1-21.4
		c-0.2-4.1-1.7-8.1-1.9-12.1c-0.1-2.6,1-5.2,1.5-7.9c0.2-0.8,0.4-1.7,0.2-2.5c-1.3-6.7-2.8-13.5-0.5-20.3c-4.7-4.2-2.3-10-2-14.5
		c0.5-8.2-3.4-15.3-3.4-23.2c0-5.8-2-11.5-3.2-17.3c-0.1-0.5-0.6-0.8-0.7-1.3c-0.4-1.8-0.7-3.6-1-5.4c-0.9,1.5-1.7,3.1-2.7,4.5
		c-0.3,0.4-1.4,0.1-0.9,0.1c-0.6,2.6-1.3,5-1.6,7.4c-0.3,2.2,0.1,4.5-0.3,6.6c-1.5,8-3.4,15.9-4.9,23.8c-0.6,3.2-0.5,6.6-0.8,9.9
		c-0.9,9.3-2.2,18.6-2.6,27.9c-0.5,10.3-0.2,20.7-0.4,31.1c-0.1,5.2-0.2,10.4-1.1,15.4c-0.5,2.7-2.7,5.1-4,7.4
		c-2.1-1.4-4.1-2.8-5.9-4.1C71,195.9,69.8,197.8,68.6,199.6z M163.6,135c0.9-2.4,1.9-4,1.5-4.6c-1.3-2.1-3.2-3.9-5.2-6.3
		c-0.2-1.6-0.4-4.3-0.7-7c-0.3,0-0.6,0.1-1,0.1c0,3.2,0,6.4,0,10.1C163.4,126.4,162.5,130.7,163.6,135z"/>
	<path d="M435.9,186.4c1.5-3.3,2.2-4.9,2.4-5.4c3.4-0.7,5.9-1.2,8.4-1.8c0.5-0.1,1.3-0.4,1.4-0.8c1.3-4,2.8-4.5,5.5-1.6
		c1.4,1.5,2.9,2.9,4.3,4.4c4.1,4.3,3.7,10.8-0.8,14.6c-1.4,1.2-2.6,2.9-2.9,3.3c-3.1,0.8-5.4,1.5-8,2.2c1.6,2.3,2.6,3.6,3.6,5
		c-4.2-0.7-8.3-1.4-12.3-2c-2,2.4-3.8,4.7-5.9,7.3c-2.7-5.8-5.1-6.8-7.9-3.9c-3.8-2.3-7.5-4.4-11.1-6.8c-0.7-0.5-1.2-1.7-1.3-2.6
		c-0.2-1.9-0.1-3.9-0.1-5.8c-2.1-0.4-3.7-0.7-5.5-1c-2.3-4.1-4.5-8.3-6.8-12.5c0.3,0,0.6-0.1,0.9-0.1c-1-3.3-2.1-6.5-3.1-9.8
		c-0.2,0.1-0.4,0.2-0.6,0.3c-0.8-3.9-1.5-7.8-2.4-12c-1.1,0.1-2.4,0.2-3.6,0.4c-0.3,0.3-0.5,0.5-0.5,0.5c2.9,4.4-2.2,4.2-3.6,6.1
		c-0.3,0.4-1.1,0.8-1.6,0.7c-4-0.5-4-0.5-3.3,3.9c0.1,1,0.2,1.9,0.2,2.9c1.6,0,3,0,5.3,0c-3.7,2.7-5.1,1.7-8,0.1
		c-2.5-1.3-6.1-0.5-9.2-0.5c-0.9,0-1.7,0.3-2.4,0.5c-0.7,1.4-1.4,2.8-2.2,4.3c-1.1-0.6-2.3-1.9-3.3-1.7c-1.5,0.3-2.8,1.6-5.1,3.1
		c-4.7-2.8-10.4-6.4-16.3-9.8c-1.2-0.7-4-1.2-4.3-0.7c-3.5,5.6-5.4,0.2-7.7-1c-3.4-1.7-6.6-3.7-9.9-5.5c-0.4,0.4-0.7,0.7-1.1,1.1
		c0.2-1.3,0.5-2.7,0.8-4.8c-2.2-0.3-4.5-0.6-6.7-1c-0.6-0.1-1.8-0.2-1.8-0.3c0.1-4.5-5.3-4.1-6.6-7.6c-0.4-1-2.9-1-4-1.9
		c-2.5-2.1-4.7-4.6-7.1-6.9c-1.3-1.3-2.6-2.7-4-4.2c0.5,6.8,0.9,13.1,1.4,19.4c0,0.5-0.1,1,0,1.5c1.6,7.6,3.5,15.1,4.9,22.8
		c1.9,10.4,2.6,21.1,5.5,31.2c1.3,4.5-0.8,7.5-0.8,11.2c0,1.1,0.7,2.3,1.1,3.4c-4.4,1.1-9,2.2-12.2-3.2c0.3,1.2,0.7,2.4,1,3.6
		c-0.5,0-1.1,0-1.1-0.1c-2.5-7-5.5-13.9-7.3-21.1c-2.4-9.7-4-19.6-5.5-29.6c-1.7-11.3-2.6-22.7-4.2-34c-1.6-11.8-3.6-23.5-5.4-35.2
		c-1.1-7.6-1.8-15.3-3-22.9c-1.4-8.7-3.1-17.2-4.5-25.9c-0.5-3.1-0.4-6.2-0.6-9.3c-3.5-0.3-7.9,3.8-9.5-2c-0.8-2.9-1.2-6.9,0.2-9.3
		c2.6-4.3,6.2-8.3,10.1-11.5c6.2-5.1,13.4-6.2,21.5-4c8,2.2,16.4,3.1,24.6,4.5c0.3,0.1,0.8,0.2,0.9,0.4c2.1,5.6,7.6,4.2,11.7,5.8
		c4.7,1.9,9.4,3.8,13.9,6c1.8,0.9,4.2,2.3,4.7,3.9c1.7,5.5,7.4,5.9,10.7,9.2c8.5,8.3,11.6,15.7,7.6,27c-1.4,4-2.8,8.1-4.7,11.8
		c-2,3.9-4.7,7.3-6.9,11.1c-0.7,1.2-0.6,2.8-1,4.9c-0.9,1.2-2,3.5-3.8,5.2c-1.2,1.2-3.5,1.2-4.9,2.3c-2.9,2.2-5.9,4.5-8,7.4
		c-0.9,1.2,0.2,5.8,0.8,5.9c5.6,0.7,6.9,4.7,8.3,9c0.3,0.9,2.2,1.2,3.3,1.7c0.2-0.4,0.4-0.8,0.6-1.1c-1-1.1-2-2.2-3-3.2
		c0.2-0.3,0.3-0.6,0.5-0.9c1.5,0.9,3,1.8,4.5,2.7c6.7,3.6,13.3,7.3,20.1,10.9c6.2,3.2,12.7,2,18.8,0c2.2-0.7,4.2-3.6,5.3-5.9
		c2.7-5.9,5-12.1,7.1-18.2c1.3-3.8,2.1-7.8,2.7-11.8c1-6.7,1.6-13.4,2.3-20.1c0.4-4.3,1.2-8.7,0.6-12.9c-0.9-7.3,5.6-8.4,7.9-11.6
		c2.6,1.6,4.8,2.6,6.5,4.2c1.2,1.2,2.4,3,2.6,4.6c0.5,4.9,0.2,9.8,0.6,14.6c0.6,8.6,1.5,17.1,2,25.7c0.3,6.4-0.3,12.8,0.1,19.1
		c0.3,6,1.2,11.9,2,17.8c0.6,4.4,0.9,8.8,2.2,13c1.2,3.7,3.1,7.4,5.3,10.6C428.3,177.7,431.9,181.6,435.9,186.4z M285.8,117.1
		c2.8-2.6,5.5-4.8,8-7.3c3.1-3.1,5.8-6.5,8.9-9.6c3.1-3.1,6.9-5.6,9.7-8.9c6-7.2,8.5-15.8,9.7-25.8c-5.8-3.3-11.8-6.8-17.8-10.2
		c-0.9-0.3-1.3-2.5-2.3-2.8c-1.1-0.4-2.8,0.9-4.3,1.4c-0.7,0.3-1.7,1.1-2.1,0.9c-2.9-1.8-5.6-3.7-8.4-5.7c0.1,0.3,0.1,0.7,0.2,1
		c-2.8-0.3-5.6-0.6-9.1-0.9c-0.7-0.6-1.9-1.6-4.2-3.6c1,5.8,1.9,9.9,2.3,14c0.6,5.6,5.1,11.2,0.4,15.9
		C283.7,88.8,282,103.3,285.8,117.1z M413,181.1c-0.5,0.4-1.1,0.7-1.6,1.1c2.8,3.4,5.5,6.8,8.3,10.2c0.4-0.3,0.9-0.6,1.3-1
		C418.3,188,415.6,184.6,413,181.1z"/>
	<path d="M212.1,52.1c3.1,5.8,12,6.5,12.5,14.8c0.4-1,0.9-2,1.2-3c0.3-0.8,0.2-2.4,0.5-2.4c3.5-0.7,5.1-3.2,6.2-6.2
		c1.6,0.6,3.3,0.9,4.7,1.9c1.7,1.2,2.9,2.9,5,5c1.1,13.4,2.4,28,3.7,42.5c0.4,4,1.2,8,1.2,12c0,3.2-1.1,6.5-1.7,10
		c3.2,1.9,3.5,6,2.6,9.3c-0.7,2.7-0.5,4.7-0.1,7.2c0.5,2.7,0.2,5.6,0.2,8.4c0,0.6,0,1.1,0.1,1.7c1.4,5.3,2.5,10.7,4.2,15.8
		c1.2,3.6,3.3,6.9,4.9,10.4c1.3,2.8,2.3,5.8,3.9,10.1c-4.2-1.1-6.9-1.8-9.7-2.5c0.4-0.3,0.9-0.6,1.3-0.9c2,2.4,4.1,4.9,6.1,7.3
		c-8.3,1.4-8.9-7.4-15.2-9c5.4,4.3,2.5,8.3,0.1,12.6c-5.5-4.5-8.7-9.8-9.8-16.6c-0.3-1.8-1.4-3.5-2.2-5.3
		c-2.4-5.4-3.8-10.9-3.9-17.1c-0.1-7-2.1-13.9-3.3-20.8c-3.2,3.8-6.5,7-8.8,10.8c-3.3,5.4-8.7,7-14.1,8.5c-6.5,1.9-10-0.5-12.1-7.1
		c-0.2-0.7-0.8-1.3-1.2-2c-1-1.6-3.2-3.4,0.8-4.3c0.7-0.2,1.1-2.1,0.7-3.6c-0.7,0.5-1.6,1.5-1.9,1.4c-1-0.6-2.5-1.5-2.6-2.4
		c-1-10.4-4.2-20.6-0.5-31.2c1.5-4.1,1.1-8.9,2-13.3c0.4-1.9,1.6-3.7,2.7-6.1c-1.7-0.9-2.4-2.6-0.7-5.9c2.3-4.2,2.9-9.4,5.2-13.6
		c2.7-4.9,6-9.5,9.9-13.5C205.8,53.1,209.4,53,212.1,52.1z M201.8,144.2c0.9-0.7,2.6-1.3,3.5-2.5c7.8-10.8,10.4-23.7,14-36.2
		c1.9-6.7,3.4-13.5,4.8-20.3c0.6-2.7,1.4-5.8,0.6-8.2c-1.3-4.2-4.4-3.3-6.9-0.8c-2.3-3.7-4.5-7.2-6.7-10.7c-0.7,0-1.3,0-2,0
		c-3,9.6-6,19.2-9.1,28.9c-0.5-0.1-1.8-0.3-4.6-0.8c2,2,3,3,4.7,4.7C198.2,112.6,197.1,128.2,201.8,144.2z"/>
	<path d="M102.5,358.4c-0.6,1.7-1.2,3.2-2.2,5.9c2.4-1.3,3.6-1.9,5-2.7c0.4,1,0.7,1.9,1,2.7c1.8-2.1,4.4-4,5.3-6.5
		c1.4-3.7,5.4-4,6.3-2.8c2,2.6,4,1.3,6,1.6c2.9,0.4,5.7,0.6,8.5,0.9c0.2-0.9,0.5-2.4,1-5.1c1.8,2.3,2.7,3.6,3.4,4.5
		c5.3-0.3,10.3-0.5,15.9-0.8c1.5,2.8,3.7,5.3,6.2,2.9c5.2,1,9.4,1.4,13.2,2.7c3.2,1.1,6.1,3.1,8.8,5.2c4,3,7.9,6.2,11.4,9.7
		c3.5,3.5,4.8,7.8,2.5,12.6c-0.9,1.9-1.8,4.7-4.8,1.7c-0.3-0.3-2.2,0.9-4,1.8c-1-2.2-6.1-2.1-6.7-6.7c0-0.3-1-0.7-1.2-0.6
		c-4.9,2.9-7.2-5.4-12-2.8c-2.1-6.5-8.8-3.2-12.8-5.9c-1.9-1.3-3.7-1.8-6.3,0.5c-3,2.7-5.5-0.6-7.3-4.1c-0.6,1.3-0.9,2.2-1.2,3
		c-3.4-1-6.8-4.3-10,0.7c-0.3,0.5-3.5-0.3-5.1-1c-3-1.4-8,2.1-9.5-3.6c0.3,1,0.9,2.1,0.7,3c-0.3,1.2-1.1,3.3-1.9,3.3
		c-3.5,0.3-7,0.1-10.5,0c-0.3,0-0.5-0.3-0.8-0.5c-2.3,3.8-5.6,2-8.6,1c-0.1,9.1,5.4,12.8,12.6,14.9c3,0.9,6,2.1,9,2.7
		c2,0.4,4.5-0.4,4.1,3.1c3.5-1.6,5.4,5.8,9.6,1.6c0.5-0.5,2.8,0.1,3.7,0.8c2.1,1.7,3.9,3.9,6,5.7c0.5,0.4,1.7,0.1,2.5,0.1
		c3.1-0.1,6,0,4.6,5.2c5.1-3.3,6.6,0.4,9.3,2.9c4.9,4.5,10.6,8.1,15.8,12.3c1.4,1.1,2.4,2.8,3.4,4.3c1.8,2.6,5,5.2,5.1,7.9
		c0.4,7.4,2.2,15.6-3,21.8c-3.4,4-8.5,7-13.4,9.1c-3.2,1.3-4,2.5-3.2,5.3c-2.3-0.3-4.5-0.6-6.7-0.8c-0.1,0.5-0.3,1.1-0.4,1.6
		c0.7,1,1.4,2.1,2.1,3.1c-0.4,0.3-0.7,0.6-0.8,0.6c-4-2.2-3.8-1.7-8.7,0.9c-2.3,1.2-5.8,0-8.7-0.1c-1,0-2.1-0.4-2.9-0.1
		c-4.4,1.5-8.8,3.2-13.2,4.8c-0.3,0.1-0.7,0.1-1,0c-4.3-0.5-10.3-0.2-12.4,0.5c-3.9-2.5-7-4.4-9.9-6.2c-0.8,1.4-1.7,2.8-2.6,4.2
		c-0.4-0.2-0.8-0.3-1.2-0.5c-0.3-1.3-0.6-2.6-0.9-3.9c-3-0.2-7,4.6-8-2c-1.9,1-3,0.7-4.2-0.5c-0.3-0.3-1.9,0.6-3.2,1
		c0,0-0.3-0.8-0.3-1.1c-1.4,0.6-2.8,1.2-5.1,2.2c0.6-2,0.9-2.9,0.9-2.9c-2.2-2.1-4.1-4-6.4-6.3c-0.2,0.1-1.4,0.6-2.8,1.2
		c0.2-1.8,0.4-3.6,0.6-5.4c-0.5-0.1-1-0.1-1.5-0.2c-0.3,1.5-0.6,3-0.9,4.9c-3-1-5.9-2.1-8.9-3c-1.5-0.5-3.1-0.5-4.6-1
		c-1.2-0.4-2.2-1.3-3.9-2.4c-1.9,0.6-1.6,0.3-3.8-2.3c-1.2-1.4-3.5-1.8-5.7-2.9c1.2-1.5,2.1-2.7,3-3.9c-0.2-0.2-0.4-0.5-0.6-0.7
		c-1.3,1.1-2.6,2.2-3.8,3.1c-1.9-0.8-4.3-1.7-6.6-2.6c0.1-0.2,0.3-0.4,0.4-0.6c-1.6-1-3.3-2-4.9-3.1c-0.5-0.4-1.1-0.8-1.4-1.4
		c-3-5.5-8.5-8.7-12.2-13.7c-3.8-5.2-7.1-10.3-7.2-16.8c0-1.2,1.6-2.6,2.7-3.7c1.1-1.1,2.4-1.9,4-3c0.6,0.9,1.2,1.9,1.9,2.9
		c0.2-0.1,0.4-0.2,0.6-0.2c-0.5-1.8-0.9-3.6-1.4-5.3c4.9-2.8,6.1-2.3,8.6,4.4c1.5,0.1,3,0.2,3.4,0.2c4.5,5.7,8.4,10.8,12.5,15.8
		c4.1,5,9.4,8,15.5,10.3c4.6,1.8,8.5,5.4,12.9,8.4c0.2-0.2,1.1-1,2.1-1.9c1.2,1.7,2.2,3.1,3.5,4.9c3.5-2.5,6.7-2.9,8.1,2.8
		c4.9-3.4,8.2-1.6,11.4,2.1c0.8,1,2.7,1,4.1,1.5c2.3,0.9,4.6,2.1,7,2.7c1.2,0.3,2.6-0.4,3,0.3c2,2.7,3.9,5.4,5.9,8
		c0.9-0.8,1.9-1.7,2.8-2.5c-0.3-1.3-0.5-2.6-0.8-3.9c1.4-0.7,2.7-1.3,4.4-2.2c2.8,1.2,6.4,2.8,10,4.4c0.7-1.2,1.4-2.5,2.1-3.7
		c5,0.1,7.4,2.6,6.7,8.1c0.6-0.1,1.1-0.2,1.7-0.3c0.1-2.1,0.2-4.3,0.3-7.2c1.6,0.3,4,1.2,6.1,0.8c1.6-0.3,2.9-2.2,4.2-3.5
		c1.8-1.9,3.5-3.4,4.5,0.3c2.3-1.9,4.7-3.7,6.7-5.8c1.1-1.2,2.5-3.5,2-4.5c-2.7-5.5-5.9-10.8-9-16.2c-0.1-0.2-0.8-0.2-1.1,0
		c-4.8,2.3-4.2-1.9-4.7-3.2c-3-0.7-6.4-0.4-7.4-1.8c-3.6-4.9-8-4.9-13.1-3.7c0.7-6.7-7.2-4.3-8.6-9.3c-1.1,3.6-1.6,3.9-5.2,2.6
		c-3.6-1.4-5.2-4.1-8-5.7c-5-2.7-10.3-4.8-15.8-7.2c0,0.1-0.8,0.8-2.2,2.3c-3.2-7.3-11.5-11.3-10.8-20.3c0.3-4.4-1.7-9.8,5.1-11.6
		c1.1-0.3,1.6-2.7,2.6-3.9c2.1-2.7,4-5.6,6.5-7.7c1.5-1.3,4.1-1.5,6.3-1.5c0.9,0,1.8,1.9,3,3.2C98,365.3,95.3,356.8,102.5,358.4z
		 M10.2,424c1.3,6.1,8.9,14.5,12.8,14.7C18.8,434,14.8,429.3,10.2,424z M105.9,472.7c5.8,5,6.2-2.2,8.9-3.8c0.5-0.3,0.3-1.8,0.4-2.6
		C111.9,468.6,109,470.6,105.9,472.7z M23.7,428.9c-0.3-0.6-0.6-1.2-0.9-1.8c-0.6,1.3-1.7,2.6-1.8,4c-0.1,0.9,1.1,2,1.7,2.9
		c1.7-1.2,3.4-2.4,4.7-3.3C25.8,430,24.8,429.4,23.7,428.9z"/>
</g>
</svg>
