<?xml version="1.0" encoding="utf-8"?>
<!-- Generator: Adobe Illustrator 22.0.1, SVG Export Plug-In . SVG Version: 6.00 Build 0)  -->
<svg version="1.1" id="Layer_1" xmlns="http://www.w3.org/2000/svg" xmlns:xlink="http://www.w3.org/1999/xlink" x="0px" y="0px"
	 viewBox="0 0 478.5 275.8" style="enable-background:new 0 0 478.5 275.8;" xml:space="preserve">
<style type="text/css">
	.st0{stroke:#000000;stroke-width:8;stroke-miterlimit:10;}
</style>
<g>
	<path class="st0" d="M413.8,127.2c-8.5-1.4-16.9-2.5-25.1-4.3c-17.7-3.9-34.7-9.6-49.2-21c-18.6-14.8-29.1-34.3-32.1-57.8
		c-0.1-1-0.2-2-0.5-4c-1.8,1.5-3.2,2.6-4.4,3.7c-20.1,18.1-41.9,33.4-68.1,41.6c-19.4,6.1-39.3,9-59.5,9.3
		c-38,0.5-75.5-3.2-111.5-16.6C44.1,71,26.2,61.6,10.7,48c-1.9-1.6-3.7-3.4-5.1-5.5c-2.4-3.6-2.1-7.4,1.2-10.4
		c3.2-2.9,6.8-2.7,10.1-0.2c2.8,2.1,5.2,4.7,8,6.8c21.5,17,46.3,26.9,72.8,32.5c37.1,7.9,74.5,10.5,112.1,3.7
		c21.3-3.9,41-11.6,58.5-24.4c16.3-11.9,32.2-24.3,43.8-41.3c3.6-5.3,8.2-6.4,12.4-4c4.1,2.4,5.8,7.8,3.2,12.7
		c-6.2,11.6-5.3,23.5-1.8,35.4c8,27.2,27.2,42.5,53.4,50.5c20.9,6.4,42.5,8.2,64.2,8.2c5.9,0,11.8-1.6,17.8-2.2
		c1.8-0.2,3.7-0.1,5.5,0.3c4.2,1,7.4,3.2,7.7,8c0.3,4.2-2.7,7.7-7.5,8.6c-3.7,0.7-7.6,0.7-11.4,1.3c-3.9,0.6-7.9,1.1-11.6,2.5
		c-13.5,5.2-25.7,12.6-36.4,22.5c-17.7,16.5-21.1,38.7-9.4,59.9c11.6,20.8,29.9,33.1,51.4,41.4c1.9,0.7,4.3,0.4,6.4,0.5
		c5.6,0.3,10.1,4.5,9.9,9.2c-0.2,5-4.8,8.2-10.9,7.7c-12-1.1-22.2-6.7-32.4-12.5c-16.9-9.6-30.3-22.7-39.5-40
		c-14.4-26.9-9.5-56.7,12.8-77.5C401.4,136.8,407.6,132.3,413.8,127.2z"/>
</g>
</svg>
