<?xml version="1.0" encoding="utf-8"?>
<!-- Generator: Adobe Illustrator 22.0.1, SVG Export Plug-In . SVG Version: 6.00 Build 0)  -->
<svg version="1.1" id="Layer_1" xmlns="http://www.w3.org/2000/svg" xmlns:xlink="http://www.w3.org/1999/xlink" x="0px" y="0px"
	 viewBox="0 0 392.1 221" style="enable-background:new 0 0 392.1 221;" xml:space="preserve">
<style type="text/css">
	.st0{stroke:#000000;stroke-width:8;stroke-miterlimit:10;}
</style>
<image style="display:none;overflow:visible;" width="3840" height="1080" xlink:href="../Pictures/Screenshots/Captura de Ecrã (4171).png"  transform="matrix(1 0 0 1 -2162.9673 -768.0148)">
</image>
<g>
	<path class="st0" d="M379.2,217c-4.8-1.9-6.9-5.8-8.1-10.6c-4.6-17.6-13.1-33.3-26.1-45.9c-7.8-7.5-16.9-13.8-26.2-19.5
		c-19.2-11.9-40.8-14.8-62.8-15.2c-22.3-0.4-44.6-0.3-66.7,4.1c-2.3,0.5-4.5,1.1-6.8,1.6c-7.3,1.4-12.1-4-9.6-11
		c0.9-2.5,2.3-4.8,3.6-7.1c3.3-6,7-11.8,10-17.9c15.6-31.3,4.3-58.6-28.9-69.8c-15.7-5.3-32-6.3-48.4-5.7c-29.3,1-57.8,6.9-85.6,16
		c-2.7,0.9-5.3,2-7.8,3.3c-4,2.1-7.4,1.8-10.2-1.8c-2.5-3.2-2.1-8.1,1-10.9c1.9-1.6,4.2-2.8,6.5-3.6C40.4,13.5,68.3,7,97.3,4.8
		c19.3-1.5,38.3-1.1,57.1,3.4c11,2.6,21,7.3,30.2,13.9c19.6,14.2,28.1,42.3,20,67.3c-2.5,7.8-6.4,15.3-9.5,22.7
		c11.3-0.7,22.8-1.9,34.4-2.2c23-0.7,46-1,68.5,5.1c46.4,12.6,75.8,42.6,89.1,88.5c2.1,7.2,0.8,9.8-5.8,13.3
		C380.6,217,379.9,217,379.2,217z"/>
</g>
</svg>
